# xmcd
#
# Track frame offsets:
#	150
#	9646
#	18542
#	29838
#	40234
#	51605
#	63576
#	74572
#	86093
#	97989
#	109810
#	122156
#	132327
#	151423
#	160019
#	171690
#	177286
#	191207
#	201528
#	213124
#	223295
#	235341
#	248212
#	258533
#	268854
#
# Disc length: 3713 seconds
#
# Revision: 1
# Processed by: cddbd v1.5.2PL0 Copyright (c) Steve Scherf et al.
# Submitted via: audiograbber 1.83.01
#
DISCID=910e7f19
DTITLE=Elvis Presley - Elvis Sings Country
DYEAR=2016
DGENRE=Country
TTITLE0=Blue Moon of Kentucky
TTITLE1=That's All Right
TTITLE2=I Don't Care If the Sun Don't Shine
TTITLE3=Baby, Let's Play House
TTITLE4=I Forget to Remember to Forget
TTITLE5=I'm Left, You're Right, She's Gone
TTITLE6=Mystery Train
TTITLE7=Blue Moon
TTITLE8=I Want You I Need You I Love You
TTITLE9=I Was the One
TTITLE10=Love Me Tender
TTITLE11=My Baby Left Me
TTITLE12=Old Shep
TTITLE13=(You're so Square) Baby I Don't Care
TTITLE14=Got a Lot o'livin' to Do
TTITLE15=Hot Dog
TTITLE16=Lonesome Cowboy
TTITLE17=Loving You
TTITLE18=Too Much
TTITLE19=Treat Me Nice
TTITLE20=(Now and Then There's) A Fool Such as I
TTITLE21=Don't
TTITLE22=Wear My Ring Around Your Neck
TTITLE23=Stuck on You
TTITLE24=She's Not You
EXTD=
EXTT0=
EXTT1=
EXTT2=
EXTT3=
EXTT4=
EXTT5=
EXTT6=
EXTT7=
EXTT8=
EXTT9=
EXTT10=
EXTT11=
EXTT12=
EXTT13=
EXTT14=
EXTT15=
EXTT16=
EXTT17=
EXTT18=
EXTT19=
EXTT20=
EXTT21=
EXTT22=
EXTT23=
EXTT24=
PLAYORDER=
